<svg width="26" height="29" viewBox="0 0 26 29" fill="none" xmlns="http://www.w3.org/2000/svg">
<g filter="url(#filter0_d_8106_84)">
<path d="M12.6916 4.85958C14.1038 4.85958 15.4844 5.27836 16.6586 6.06297C17.8329 6.84758 18.7481 7.96277 19.2885 9.26752C19.829 10.5723 19.9704 12.008 19.6949 13.3931C19.4193 14.7782 18.7393 16.0505 17.7407 17.0492C16.742 18.0478 15.4697 18.7278 14.0846 19.0034C12.6995 19.2789 11.2638 19.1375 9.95902 18.597C8.65427 18.0566 7.53908 17.1414 6.75447 15.9671C5.96986 14.7929 5.55108 13.4123 5.55108 12.0001C5.55839 10.1085 6.31304 8.29658 7.65056 6.95906C8.98808 5.62154 10.8 4.86689 12.6916 4.85958ZM12.6916 3.2728C10.967 3.27986 9.28321 3.79769 7.85273 4.76094C6.42224 5.72418 5.3092 7.08965 4.65413 8.68495C3.99905 10.2803 3.83131 12.0339 4.17207 13.7245C4.51284 15.415 5.34683 16.9667 6.56877 18.1837C7.79071 19.4007 9.34581 20.2283 11.0378 20.5622C12.7297 20.896 14.4826 20.7211 16.0753 20.0595C17.6679 19.398 19.0288 18.2794 19.9862 16.845C20.9436 15.4105 21.4545 13.7246 21.4545 12.0001C21.4546 10.851 21.2276 9.7132 20.7868 8.65202C20.346 7.59085 19.7 6.62717 18.8858 5.8163C18.0716 5.00543 17.1053 4.36333 16.0423 3.92685C14.9794 3.49037 13.8407 3.2681 12.6916 3.2728Z" fill="#4EA8DE"/>
</g>
<defs>
<filter id="filter0_d_8106_84" x="0" y="3.27273" width="25.4546" height="25.4545" filterUnits="userSpaceOnUse" color-interpolation-filters="sRGB">
<feFlood flood-opacity="0" result="BackgroundImageFix"/>
<feColorMatrix in="SourceAlpha" type="matrix" values="0 0 0 0 0 0 0 0 0 0 0 0 0 0 0 0 0 0 127 0" result="hardAlpha"/>
<feOffset dy="4"/>
<feGaussianBlur stdDeviation="2"/>
<feComposite in2="hardAlpha" operator="out"/>
<feColorMatrix type="matrix" values="0 0 0 0 0 0 0 0 0 0 0 0 0 0 0 0 0 0 0.25 0"/>
<feBlend mode="normal" in2="BackgroundImageFix" result="effect1_dropShadow_8106_84"/>
<feBlend mode="normal" in="SourceGraphic" in2="effect1_dropShadow_8106_84" result="shape"/>
</filter>
</defs>
</svg>
